<!-- Generated by IcoMoon.io -->
<svg version="1.1" xmlns="http://www.w3.org/2000/svg" width="32" height="32" viewBox="0 0 32 32">
<title>linkedin</title>
<path fill="#afb1b8" d="M27.423 22.857v-0.001h0.006v-8.383c0-4.101-0.883-7.26-5.677-7.26-2.305 0-3.851 1.265-4.483 2.464h-0.067v-2.081h-4.546v15.26h4.733v-7.556c0-1.989 0.377-3.913 2.841-3.913 2.428 0 2.464 2.27 2.464 4.041v7.429h4.729z"></path>
<path fill="#afb1b8" d="M4.949 7.597h4.739v15.26h-4.739v-15.26z"></path>
<path fill="#afb1b8" d="M7.316 0c-1.515 0-2.745 1.23-2.745 2.745s1.23 2.77 2.745 2.77c1.515 0 2.745-1.255 2.745-2.77s-1.23-2.745-2.745-2.745v0z"></path>
</svg>
